:SAMPLES-PER-SECOND 30
:FRAME-RANGE 1-2045
:FULLY-SPECIFIED
:DEGREES
1662
root  9.36113 36.4765 -69.0263 19.1776 45.1718 13.1496
RightUpLeg  -34.0922 -20.2026 -3.47566
RightLeg  54.9234 -11.9509 -17.9749
RightFoot  -25.2266 1.28978 11.965
RightToes  5.82063e-011 0 -3.6325e-017
Spine  20.7531 0.293665 2.42672
Spine1  -5.52464 1.83286 -7.03854
HEad  -12.4112 -14.6601 1.40102
LeftShoulder1  1.23368 -0.724311 -22.8733
LeftArm  -9.16207 8.36074 -36.9098
LeftForeArm  67.3935 -77.9262 -105.103
LeftHand  -1.10299 17.0562 -9.61226
RightShoulder  6.79811 22.49 19.5668
RightArm  -12.8112 21.7425 7.96947
RightForeArm  -43.6192 61.3582 24.2986
RightHand  -1.90922 -14.2996 22.6219
LeftUpLeg  -18.0891 24.5231 14.756
LeftLeg  14.9101 24.9151 4.95917
LeftFoot  5.70483 2.10007 -14.1864
LeftToes  -3.90176e-010 -2.48536e-010 1.05482e-011
1663
root  8.91858 36.3026 -67.5313 19.6558 45.0293 14.0289
RightUpLeg  -31.7081 -19.504 -1.97223
RightLeg  54.1129 -13.1086 -18.9803
RightFoot  -29.3358 1.51377 10.7967
RightToes  5.82063e-011 0 -3.6325e-017
Spine  19.7647 0.103726 3.42484
Spine1  -5.03904 1.67257 -6.6475
HEad  -11.6972 -14.7117 0.244601
LeftShoulder1  1.11144 -0.32103 -22.7427
LeftArm  -10.76 10.2592 -36.8394
LeftForeArm  87.0462 -75.6739 -125.704
LeftHand  -1.05524 18.3849 -8.15561
RightShoulder  6.49987 22.0392 18.8173
RightArm  -12.1128 21.9748 8.29428
RightForeArm  -44.575 61.4048 24.3751
RightHand  -2.0177 -14.5577 23.2528
LeftUpLeg  -18.7545 18.3276 14.7984
LeftLeg  16.5704 15.8559 5.25422
LeftFoot  -2.0887 0.757806 -9.19701
LeftToes  -3.90176e-010 -2.48536e-010 1.05482e-011
1664
root  8.55921 36.1479 -66.0712 19.2304 45.4626 13.8984
RightUpLeg  -29.3445 -19.3352 0.155564
RightLeg  53.6278 -13.8888 -19.6544
RightFoot  -31.6955 1.55917 9.87031
RightToes  5.82063e-011 0 -3.6325e-017
Spine  19.1939 -0.143008 5.0321
Spine1  -4.73562 1.41056 -5.74784
HEad  -11.4248 -14.861 -0.542958
LeftShoulder1  0.996787 -0.00419458 -22.058
LeftArm  -12.358 11.3693 -36.5912
LeftForeArm  99.7079 -72.3949 -138.973
LeftHand  -0.948305 19.5207 -6.60626
RightShoulder  6.66546 22.0425 19.5104
RightArm  -10.6425 21.3635 9.05649
RightForeArm  -45.8517 60.0542 23.0548
RightHand  -1.93082 -13.8701 24.0347
LeftUpLeg  -21.0138 10.53 15.0553
LeftLeg  22.5921 7.91727 3.9315
LeftFoot  -4.73053 0.143878 -1.99895
LeftToes  -3.90176e-010 -2.48536e-010 1.05482e-011
1665
root  8.17427 36.0969 -64.5656 17.9651 44.9396 13.3404
RightUpLeg  -26.1253 -18.5685 2.14952
RightLeg  52.3479 -14.6762 -19.7612
RightFoot  -33.2598 1.64379 9.64369
RightToes  5.82063e-011 0 -3.6325e-017
Spine  19.4566 0.434141 5.73392
Spine1  -4.12347 1.91829 -4.5927
HEad  -11.3746 -15.0684 -1.44775
LeftShoulder1  0.900988 0.246376 -21.253
LeftArm  -13.3904 10.5112 -35.2581
LeftForeArm  105.983 -69.3219 -146.273
LeftHand  -0.773962 20.583 -4.82301
RightShoulder  7.10595 21.6848 21.7809
RightArm  -7.76406 19.695 10.4493
RightForeArm  -46.4889 58.5908 21.7417
RightHand  -1.95034 -13.2897 26.0413
LeftUpLeg  -24.3342 9.78625 12.9694
LeftLeg  31.7163 2.37931 1.93218
LeftFoot  -7.50391 0.256717 -6.31744
LeftToes  -3.90176e-010 -2.48536e-010 1.05482e-011
1666
root  7.7203 36.3807 -62.9124 17.2573 43.5363 12.9467
RightUpLeg  -22.0197 -17.5568 3.93606
RightLeg  48.108 -15.6345 -18.15
RightFoot  -33.3755 1.38493 8.27277
RightToes  5.82063e-011 0 -3.6325e-017
Spine  20.0501 1.14249 6.18307
Spine1  -4.03478 2.78382 -5.08266
HEad  -11.0468 -14.6759 -2.55011
LeftShoulder1  0.774914 0.540137 -19.6344
LeftArm  -13.7322 8.91807 -33.0065
LeftForeArm  111.251 -66.9985 -150.442
LeftHand  -0.623843 20.9936 -3.61064
RightShoulder  7.93579 21.3068 25.7611
RightArm  -1.37825 17.6694 12.9512
RightForeArm  -48.4849 55.5456 19.3959
RightHand  -1.50774 -10.8951 28.624
LeftUpLeg  -27.6703 10.8058 8.55335
LeftLeg  38.0965 1.9619 2.01773
LeftFoot  -8.80196 0.225356 -7.7828
LeftToes  -3.90176e-010 -2.48536e-010 1.05482e-011
1667
root  7.23804 36.9181 -61.1975 17.7878 41.8637 12.7456
RightUpLeg  -18.2488 -17.4408 5.5371
RightLeg  41.5487 -15.4691 -14.48
RightFoot  -31.608 0.921877 6.35823
RightToes  5.82063e-011 0 -3.6325e-017
Spine  19.8547 2.19046 6.26407
Spine1  -3.81693 3.94191 -5.97662
HEad  -10.6043 -14.2961 -3.78515
LeftShoulder1  0.700248 0.725206 -18.6162
LeftArm  -14.3173 5.78919 -30.8915
LeftForeArm  113.895 -65.8514 -152.198
LeftHand  -0.436092 20.9872 -2.27662
RightShoulder  9.14217 21.6558 30.2307
RightArm  5.34859 14.4413 15.0307
RightForeArm  -50.2221 52.4782 17.4165
RightHand  -0.805384 -8.0706 30.2923
LeftUpLeg  -31.6879 12.5627 2.22784
LeftLeg  40.0764 2.9691 3.05275
LeftFoot  -9.47774 0.194032 -8.43286
LeftToes  -3.90176e-010 -2.48536e-010 1.05482e-011
1668
root  6.74523 37.6313 -59.445 18.5704 39.961 12.5923
RightUpLeg  -14.1887 -17.9638 6.4993
RightLeg  33.8109 -12.2908 -8.96874
RightFoot  -27.2709 0.289746 3.39368
RightToes  5.82063e-011 0 -3.6325e-017
Spine  19.8905 3.31457 6.1465
Spine1  -3.45341 5.28009 -7.18728
HEad  -10.7742 -14.2986 -4.49702
LeftShoulder1  0.645195 0.944699 -18.6248
LeftArm  -14.5735 1.33717 -28.9976
LeftForeArm  115.402 -65.9006 -152.272
LeftHand  -0.401802 20.7746 -2.0699
RightShoulder  10.573 21.7348 35.7742
RightArm  7.79795 11.6542 15.2136
RightForeArm  -49.4446 50.043 16.0114
RightHand  -0.197933 -5.87573 30.9942
LeftUpLeg  -34.787 14.2272 -5.09371
LeftLeg  36.8274 3.09373 2.85086
LeftFoot  -9.75474 0.204823 -10.559
LeftToes  -3.90176e-010 -2.48536e-010 1.05482e-011
1669
root  6.27392 38.2854 -57.6561 19.3715 38.0391 12.5823
RightUpLeg  -10.059 -17.0786 6.77869
RightLeg  27.1545 -6.94646 -4.0865
RightFoot  -21.5517 -0.00530399 1.57427
RightToes  5.82063e-011 0 -3.6325e-017
Spine  20.1374 4.26094 4.97405
Spine1  -3.19648 6.22847 -7.63652
HEad  -11.2933 -14.2943 -4.46558
LeftShoulder1  0.619606 1.06129 -18.7912
LeftArm  -14.2098 -1.92303 -27.5517
LeftForeArm  114.98 -67.0426 -150.736
LeftHand  -0.468599 20.1079 -2.69814
RightShoulder  11.5917 21.1057 40.8046
RightArm  6.83847 9.83887 15.1036
RightForeArm  -47.8292 48.0773 14.9641
RightHand  0.520348 -3.40195 31.8648
LeftUpLeg  -36.7964 14.802 -12.3489
LeftLeg  30.3194 1.2746 1.15324
LeftFoot  -9.89597 0.248994 -14.9884
LeftToes  -3.90176e-010 -2.48536e-010 1.05482e-011
1670
root  5.88459 38.6743 -55.7837 19.9844 35.9764 12.6732
RightUpLeg  -6.40574 -14.6088 6.64465
RightLeg  23.227 -0.414437 -0.416074
RightFoot  -14.6384 -0.0977875 0.0438821
RightToes  5.82063e-011 0 -3.6325e-017
Spine  19.6582 4.92398 3.19685
Spine1  -2.34888 6.8348 -7.92901
HEad  -11.3637 -14.4457 -3.6331
LeftShoulder1  0.657017 0.935643 -19.0245
LeftArm  -13.5086 -4.02533 -25.9564
LeftForeArm  112.571 -69.1717 -147.24
LeftHand  -0.618115 18.6994 -4.3032
RightShoulder  11.957 19.9992 44.3405
RightArm  4.97292 8.68772 15.3934
RightForeArm  -46.3463 46.5379 14.1955
RightHand  0.924108 -1.92076 30.9825
LeftUpLeg  -37.6322 14.4273 -18.7505
LeftLeg  23.1717 -3.59525 -1.35317
LeftFoot  -9.62748 0.369995 -20.7059
LeftToes  -3.90176e-010 -2.48536e-010 1.05482e-011
1671
root  5.59805 38.6276 -53.7517 19.0107 34.1748 11.6611
RightUpLeg  -2.96648 -14.2185 6.91644
RightLeg  23.644 6.68242 2.97775
RightFoot  -7.26927 -0.0920684 1.20161
RightToes  5.82063e-011 0 -3.6325e-017
Spine  18.7486 5.22654 2.09289
Spine1  -1.547 6.97132 -7.91768
HEad  -9.97159 -14.778 -2.50037
LeftShoulder1  0.727782 0.71929 -19.6213
LeftArm  -12.518 -5.806 -24.2745
LeftForeArm  108.59 -71.5595 -142.138
LeftHand  -0.726903 17.3005 -5.90155
RightShoulder  11.9105 19.1046 46.0041
RightArm  3.77799 7.10039 15.9505
RightForeArm  -44.2573 46.0258 13.9048
RightHand  1.23668 -0.8244 31.0431
LeftUpLeg  -37.3888 13.6405 -22.1305
LeftLeg  19.668 -13.0741 -4.81385
LeftFoot  -8.96138 0.620564 -26.8577
LeftToes  -3.90176e-010 -2.48536e-010 1.05482e-011
